PathFileType	4	(X/Y/Z)	C:\MyCloud\GitHub\OpenSimScripting\Matlab\Data\Gait2354_Simbody\Hip_Kinetic_SLOW_Crop_Marker.trc	
DataRate	CameraRate	NumFrames	NumMarkers	Units	OrigDataRate	OrigDataStartFrame	OrigNumFrames
100	100	4	34	mm	100	2403	1050
Frame#	Time	Torso2			Torso3			Torso4			Hip1			Hip2			LThigh1			LThigh2			LThigh3			LThigh4			RThigh1			RThigh2			RThigh3			RThigh4			RTibia1			RTibia2			RTibia3			RTibia4			LTibia1			LTibia2			LTibia3			LTibia4			LFoot1			LFoot2			LFoot3			LFoot4			RFoot1			RFoot2			RFoot3			RFoot4			C7			Torso5			C_31			C_32			C_33			
		X1	Y1	Z1	X2	Y2	Z2	X3	Y3	Z3	X4	Y4	Z4	X5	Y5	Z5	X6	Y6	Z6	X7	Y7	Z7	X8	Y8	Z8	X9	Y9	Z9	X10	Y10	Z10	X11	Y11	Z11	X12	Y12	Z12	X13	Y13	Z13	X14	Y14	Z14	X15	Y15	Z15	X16	Y16	Z16	X17	Y17	Z17	X18	Y18	Z18	X19	Y19	Z19	X20	Y20	Z20	X21	Y21	Z21	X22	Y22	Z22	X23	Y23	Z23	X24	Y24	Z24	X25	Y25	Z25	X26	Y26	Z26	X27	Y27	Z27	X28	Y28	Z28	X29	Y29	Z29	X30	Y30	Z30	X31	Y31	Z31	X32	Y32	Z32	X33	Y33	Z33	X34	Y34	Z34	

2403	3.94000	514.86981	-284.77002	-1195.48376	493.79459	-290.60727	-1130.82593	530.98932	-435.34811	-1249.57239	272.55777	-452.52707	-830.73865	243.83533	-139.64783	-856.46454	143.40285	-505.66916	-785.60510	128.51019	-531.96478	-398.37918	137.28404	-391.37900	-389.81638	236.92291	-484.19339	-656.52814	154.85780	-114.80501	-779.74384	126.70636	-95.93773	-398.53174	116.14809	-236.84763	-378.38022	207.17203	-141.89893	-487.74545	91.64136	-81.10803	-345.30896	41.46429	-93.00122	63.69248	85.73615	-180.05779	50.16533	152.48711	-116.13341	-310.00833	92.35951	-548.03589	-361.54846	30.41542	-548.27655	52.41500	78.86626	-465.29883	42.85283	145.09608	-517.00287	-312.89017	7.16567	-487.39777	28.46849	94.07388	-584.87256	162.60274	190.63432	-534.80481	194.91217	149.42924	-482.43494	170.61310	11.79040	-151.74191	30.33511	112.33851	-54.50183	151.23546	190.10919	-98.60078	195.68147	150.05383	-152.54150	181.30717	467.75546	-305.19736	-1372.65051	515.26056	-146.43771	-1261.70471	0.00000	0.00000	0.00000	0.00000	0.00000	0.00000	0.00000	0.00000	0.00000	
2404	3.95000	514.95599	-284.81110	-1195.57556	493.86301	-290.62097	-1130.87366	530.99707	-435.27930	-1249.71472	272.60559	-452.51868	-830.77594	243.82077	-139.70148	-856.43097	143.42026	-505.66989	-785.63354	128.44682	-532.03296	-398.45105	137.27293	-391.42487	-389.82333	236.99733	-484.20294	-656.51379	154.88153	-114.83413	-779.71783	126.89521	-95.95292	-398.60205	116.20486	-236.78081	-378.34589	207.20322	-141.90851	-487.74619	91.62605	-81.12492	-345.32782	41.48107	-93.05014	63.69516	85.84130	-180.11359	50.18797	152.50581	-116.16685	-310.01096	96.13728	-553.11029	-362.49658	30.38240	-548.25171	52.41053	78.91403	-465.35489	42.84888	145.19427	-517.04321	-312.87869	7.14194	-487.53842	28.46894	94.10627	-585.03827	162.58598	190.67392	-534.87903	194.91197	149.50093	-482.52899	170.60310	11.87115	-151.73746	30.34273	112.31600	-54.49576	151.23315	190.19139	-98.62630	195.67972	150.20352	-152.57779	181.26521	467.74200	-305.16837	-1372.72766	515.32922	-146.45139	-1261.73413	0.00000	0.00000	0.00000	0.00000	0.00000	0.00000	0.00000	0.00000	0.00000	
2405	3.96000	514.93756	-284.77774	-1195.65039	494.21008	-290.38385	-1130.94202	530.91815	-435.19986	-1249.82935	271.71579	-451.99817	-830.59607	243.87035	-139.72545	-856.42181	143.69275	-505.53918	-785.48126	127.41766	-533.26489	-398.99887	137.29680	-391.54666	-389.87735	236.94777	-484.31958	-656.53802	154.88202	-114.82364	-779.71338	126.92482	-95.97019	-398.59061	116.21111	-236.85814	-378.37933	207.13206	-141.96498	-487.77054	91.66257	-81.14200	-345.30524	41.49271	-93.04301	63.70152	85.91892	-180.18867	50.16842	152.48718	-116.16092	-309.99966	92.41785	-548.20660	-361.58240	30.42269	-548.31433	52.40271	78.90168	-465.40167	42.84782	145.09631	-517.13171	-312.90131	7.16386	-487.57196	28.43895	94.07539	-585.10620	162.58580	190.65599	-534.96210	194.87932	149.50664	-482.59686	170.59012	11.87146	-151.88092	30.28188	112.25403	-54.49205	151.22591	190.15567	-98.61948	195.66991	150.29402	-152.63815	181.20396	467.59207	-304.97055	-1372.80481	515.29523	-146.40547	-1261.78381	0.00000	0.00000	0.00000	0.00000	0.00000	0.00000	0.00000	0.00000	0.00000	
2406	3.97000	514.84210	-284.68118	-1195.69006	493.90634	-290.48761	-1131.03137	530.83728	-435.19891	-1249.96387	271.69684	-451.95407	-830.56885	243.79181	-139.67181	-856.42383	143.71898	-505.54736	-785.46960	128.59993	-531.99200	-398.31833	137.29446	-391.53494	-389.82648	236.91551	-484.30890	-656.45880	154.82571	-114.80034	-779.68781	126.78905	-95.87905	-398.54214	116.14473	-236.85249	-378.37918	207.11011	-141.90308	-487.74554	91.61141	-81.11482	-345.30365	41.44506	-92.99900	63.71837	85.79101	-180.06381	50.18972	152.46373	-116.10765	-309.99161	92.39909	-548.28888	-361.59900	30.39235	-548.36713	52.41217	78.86309	-465.40067	42.80931	145.05299	-517.12823	-312.92255	7.17008	-487.44974	28.44833	93.92717	-585.01709	162.58138	190.58569	-535.05005	194.87015	149.46367	-482.66644	170.61116	11.86254	-151.91060	30.29963	112.38779	-54.28954	151.11226	190.09192	-98.48787	195.71227	150.11964	-152.47522	181.26176	467.50995	-304.89264	-1372.99341	515.14600	-146.34767	-1261.84778	0.00000	0.00000	0.00000	0.00000	0.00000	0.00000	0.00000	0.00000	0.00000	
